<?xml version="1.0" encoding="UTF-8"?>
<!DOCTYPE svg PUBLIC "-//W3C//DTD SVG 1.1//EN" "http://www.w3.org/Graphics/SVG/1.1/DTD/svg11.dtd">
<!-- Creator: CorelDRAW X8 -->
<svg xmlns="http://www.w3.org/2000/svg" xml:space="preserve" width="1576px" height="231px" version="1.1" style="shape-rendering:geometricPrecision; text-rendering:geometricPrecision; image-rendering:optimizeQuality; fill-rule:evenodd; clip-rule:evenodd"
viewBox="0 0 1409 207"
 xmlns:xlink="http://www.w3.org/1999/xlink">
 <defs>
  <style type="text/css">
   <![CDATA[
    .fil1 {fill:#293C7D}
    .fil0 {fill:#4899D2}
    .fil2 {fill:#293C7D;fill-rule:nonzero}
    .fil3 {fill:#4899D2;fill-rule:nonzero}
   ]]>
  </style>
 </defs>
 <g id="Capa_x0020_1">
  <metadata id="CorelCorpID_0Corel-Layer"/>
  <g id="_1004327328">
   <g>
    <path class="fil0" d="M3 175l36 30c4,3 9,2 12,-1 3,-4 3,-9 -1,-12l-18 -15 85 0c28,0 49,-22 49,-49l0 -16c0,-5 -3,-8 -8,-8 -5,0 -9,3 -9,8l0 16c0,17 -14,31 -32,31l-85 0 18 -15c4,-3 4,-8 1,-12 -3,-3 -8,-4 -12,-1l-36 30c-4,3 -4,9 -1,13 0,0 1,0 1,1l0 0z"/>
    <path class="fil1" d="M26 103c5,0 8,-3 8,-8l0 -16c0,-17 15,-31 32,-31l85 0 -17 15c-5,2 -6,7 -4,11 3,5 8,6 12,4 1,-1 2,-1 2,-2l36 -31c4,-3 4,-8 1,-12 0,0 0,0 -1,-1l-36 -30c-3,-3 -9,-3 -12,1 -3,4 -2,9 1,12l18 15 -85 0c-27,0 -49,22 -49,49l0 16c0,5 4,8 9,8z"/>
   </g>
   <path class="fil2" d="M237 156l-29 0 17 -108 29 0c8,0 15,1 19,1 4,1 8,2 11,3 5,3 9,6 12,11 3,5 4,10 4,17 0,9 -2,16 -8,22 -5,6 -12,10 -22,11l27 43 -33 0 -21 -41 -6 41zm9 -59l9 0c5,0 10,-1 13,-3 3,-3 4,-7 4,-12 0,-4 -1,-8 -4,-10 -3,-2 -7,-3 -14,-3l-4 0 -4 28z"/>
   <polygon id="1" class="fil2" points="340,132 373,132 369,156 308,156 324,48 386,48 383,73 349,73 347,91 377,91 374,114 343,114 "/>
   <path id="2" class="fil2" d="M486 53l-5 30c-4,-4 -8,-6 -13,-8 -5,-2 -10,-3 -15,-3 -9,0 -16,3 -22,10 -6,6 -9,14 -9,23 0,9 3,16 7,20 5,5 12,8 21,8 4,0 8,-1 12,-2 4,-1 8,-2 12,-4l-4 28c-4,1 -8,2 -12,3 -5,0 -9,0 -15,0 -15,0 -27,-4 -36,-14 -10,-9 -14,-22 -14,-38 0,-7 1,-14 3,-21 3,-7 6,-13 11,-19 5,-7 12,-12 20,-15 8,-4 17,-5 27,-5 6,0 11,0 17,2 5,1 10,3 15,5z"/>
   <path id="3" class="fil2" d="M476 156l54 -108 36 0 22 108 -29 0 -4 -21 -38 0 -10 21 -31 0zm52 -44l23 0 -5 -26c-1,-2 -1,-4 -1,-6 0,-2 -1,-4 -1,-6 -1,3 -2,6 -2,8 -1,2 -2,4 -2,5l-12 25z"/>
   <path id="4" class="fil2" d="M623 156l-29 0 17 -108 29 0c8,0 15,1 19,1 4,1 8,2 11,3 5,3 10,6 12,11 3,5 5,10 5,17 0,9 -3,16 -8,22 -6,6 -13,10 -22,11l26 43 -33 0 -21 -41 -6 41zm9 -59l9 0c6,0 10,-1 13,-3 3,-3 5,-7 5,-12 0,-4 -2,-8 -5,-10 -2,-2 -7,-3 -13,-3l-5 0 -4 28z"/>
   <path id="5" class="fil2" d="M756 97l54 0c-1,19 -6,34 -16,45 -10,11 -24,17 -41,17 -17,0 -31,-5 -41,-14 -10,-10 -15,-22 -15,-37 0,-9 2,-17 5,-25 3,-8 7,-14 13,-20 6,-6 12,-10 20,-13 7,-3 15,-4 24,-4 10,0 19,2 27,6 8,4 14,10 20,19l-23 16c-3,-5 -6,-9 -10,-11 -4,-3 -9,-4 -14,-4 -9,0 -16,3 -22,10 -6,6 -9,15 -9,25 0,8 2,14 7,19 5,5 11,8 18,8 3,0 6,-1 8,-1 3,-1 5,-2 7,-3 2,-1 4,-3 5,-5 2,-1 3,-3 4,-6l-25 0 4 -22z"/>
   <path id="6" class="fil2" d="M805 156l53 -108 36 0 23 108 -29 0 -4 -21 -38 0 -10 21 -31 0zm52 -44l23 0 -5 -26c-1,-2 -1,-4 -1,-6 -1,-2 -1,-4 -1,-6 -1,3 -2,6 -3,8 0,2 -1,4 -2,5l-11 25z"/>
   <path id="7" class="fil2" d="M933 119c4,5 9,8 13,10 4,2 8,4 12,4 4,0 7,-1 9,-3 2,-2 3,-4 3,-7 0,-4 -4,-8 -13,-13 -1,0 -1,0 -2,-1 -8,-4 -14,-8 -17,-12 -3,-4 -5,-9 -5,-15 0,-11 4,-20 11,-26 7,-7 16,-10 27,-10 6,0 12,1 18,3 5,2 10,5 15,9l-12 21c-4,-3 -7,-6 -11,-7 -3,-2 -6,-3 -8,-3 -3,0 -6,1 -8,3 -2,2 -3,4 -3,6 0,3 4,7 11,10 3,2 5,3 6,4 8,4 13,8 16,12 3,5 4,10 4,17 0,11 -4,20 -12,27 -8,7 -18,10 -32,10 -7,0 -14,-1 -20,-4 -6,-3 -12,-8 -17,-14l15 -21z"/>
   <polygon id="8" class="fil2" points="1236,170 1293,46 1309,46 1252,170 "/>
   <path id="9" class="fil3" d="M1101 133c3,0 5,0 7,0 2,-1 3,-1 4,-1l23 0 -4 24 -78 0 44 -52c6,-6 9,-10 11,-14 2,-4 3,-7 3,-10 0,-3 -1,-6 -3,-8 -2,-2 -5,-3 -8,-3 -4,0 -8,2 -10,5 -3,3 -4,7 -4,12l-25 0c1,-12 5,-22 12,-28 7,-7 16,-11 28,-11 11,0 20,3 27,9 7,6 10,14 10,24 0,6 -1,13 -5,19 -3,6 -9,13 -18,21l-14 13z"/>
   <path id="10" class="fil3" d="M1193 111l6 -33c1,-2 2,-6 3,-11l0 -1c-1,2 -2,4 -4,6 -1,2 -2,4 -4,6l-26 33 25 0zm-7 45l4 -25 -46 0 3 -20 49 -62 31 0 -10 62 14 0 -3 20 -14 0 -4 25 -24 0z"/>
   <polygon id="11" class="fil3" points="1314,156 1366,74 1321,74 1325,49 1409,49 1408,53 1344,156 "/>
  </g>
 </g>
</svg>
