<?xml version="1.0" encoding="UTF-8"?>
<!DOCTYPE svg PUBLIC "-//W3C//DTD SVG 1.1//EN" "http://www.w3.org/Graphics/SVG/1.1/DTD/svg11.dtd">
<!-- Creator: CorelDRAW X8 -->
<svg xmlns="http://www.w3.org/2000/svg" xml:space="preserve" width="1362px" height="200px" version="1.1" style="shape-rendering:geometricPrecision; text-rendering:geometricPrecision; image-rendering:optimizeQuality; fill-rule:evenodd; clip-rule:evenodd"
viewBox="0 0 1362 200"
 xmlns:xlink="http://www.w3.org/1999/xlink">
 <defs>
  <style type="text/css">
   <![CDATA[
    .fil0 {fill:#FEFEFE}
    .fil1 {fill:#FEFEFE;fill-rule:nonzero}
   ]]>
  </style>
 </defs>
 <g id="Capa_x0020_1">
  <metadata id="CorelCorpID_0Corel-Layer"/>
  <g id="_1004327328">
   <g>
    <path class="fil0" d="M3 169l35 29c4,3 9,2 11,-1 3,-4 3,-8 -1,-11l-17 -15 82 0c27,0 48,-21 48,-47l0 -16c0,-4 -3,-7 -8,-7 -5,0 -9,3 -9,7l0 16c0,16 -13,30 -31,30l-82 0 17 -15c4,-3 4,-7 1,-11 -2,-3 -7,-4 -11,-1l-35 29c-4,3 -4,8 -1,12 0,0 1,0 1,1l0 0z"/>
    <path class="fil0" d="M25 100c5,0 8,-3 8,-8l0 -16c0,-16 14,-29 31,-29l82 0 -16 14c-5,2 -6,7 -4,11 3,4 8,5 11,4 1,-1 2,-1 2,-2l35 -30c4,-3 4,-8 1,-12 0,0 0,0 -1,-1l-35 -29c-3,-3 -8,-3 -11,1 -3,4 -2,9 1,12l17 14 -82 0c-26,0 -47,21 -47,47l0 16c0,5 3,8 8,8l0 0z"/>
   </g>
   <path class="fil1" d="M229 151l-28 0 17 -104 28 0c7,0 14,0 18,0 4,1 8,2 11,3 4,3 8,6 11,11 3,5 4,10 4,16 0,9 -2,16 -8,22 -4,6 -11,9 -21,10l26 42 -32 0 -20 -40 -6 40 0 0zm9 -57l9 0c4,0 9,-1 12,-3 3,-3 4,-7 4,-12 0,-3 -1,-7 -4,-9 -3,-2 -7,-3 -13,-3l-4 0 -4 27 0 0z"/>
   <polygon id="_1" class="fil1" points="329,128 361,128 357,151 298,151 313,47 373,47 370,71 337,71 335,88 364,88 362,110 332,110 "/>
   <path id="_2" class="fil1" d="M470 51l-5 29c-4,-4 -8,-5 -13,-7 -4,-2 -9,-3 -14,-3 -9,0 -16,3 -21,9 -6,6 -9,14 -9,23 0,8 3,15 7,19 5,5 11,8 20,8 4,0 8,-1 12,-2 4,-1 7,-2 11,-4l-4 27c-3,1 -7,2 -11,3 -5,0 -9,0 -15,0 -14,0 -26,-4 -35,-14 -9,-8 -13,-21 -13,-36 0,-7 1,-14 3,-21 3,-6 6,-12 10,-18 5,-7 12,-12 20,-15 8,-3 16,-4 26,-4 6,0 11,0 16,2 5,0 10,2 15,4l0 0z"/>
   <path id="_3" class="fil1" d="M460 151l52 -104 35 0 21 104 -28 0 -3 -20 -37 0 -10 20 -30 0zm50 -43l23 0 -5 -25c-1,-2 -1,-4 -1,-6 0,-1 -1,-3 -1,-5 -1,3 -2,5 -2,7 -1,2 -2,4 -2,5l-12 24 0 0z"/>
   <path id="_4" class="fil1" d="M602 151l-28 0 17 -104 28 0c7,0 14,0 18,0 4,1 8,2 11,3 4,3 9,6 11,11 3,5 5,10 5,16 0,9 -3,16 -8,22 -5,6 -12,9 -21,10l25 42 -32 0 -20 -40 -6 40 0 0zm9 -57l9 0c5,0 9,-1 12,-3 3,-3 5,-7 5,-12 0,-3 -2,-7 -5,-9 -2,-2 -7,-3 -12,-3l-5 0 -4 27z"/>
   <path id="_5" class="fil1" d="M731 94l52 0c-1,18 -6,33 -16,43 -9,11 -23,17 -39,17 -17,0 -30,-5 -40,-14 -9,-9 -14,-21 -14,-35 0,-9 2,-17 5,-25 2,-7 6,-13 12,-19 6,-6 12,-10 19,-13 7,-2 15,-3 24,-3 9,0 18,2 26,5 7,4 13,10 19,19l-22 15c-3,-5 -6,-8 -10,-10 -4,-3 -8,-4 -13,-4 -9,0 -16,3 -22,9 -5,6 -8,15 -8,25 0,7 2,13 6,18 5,5 11,8 18,8 3,0 6,-1 8,-1 3,-1 4,-2 6,-3 2,-1 4,-3 5,-5 2,-1 3,-3 4,-6l-24 0 4 -21z"/>
   <path id="_6" class="fil1" d="M778 151l51 -104 35 0 22 104 -28 0 -4 -20 -36 0 -10 20 -30 0 0 0zm50 -43l23 0 -5 -25c-1,-2 -1,-4 -1,-6 -1,-1 -1,-3 -1,-5 -1,3 -2,5 -3,7 0,2 -1,4 -2,5l-11 24 0 0z"/>
   <path id="_7" class="fil1" d="M902 115c4,5 9,8 12,10 4,2 8,4 12,4 4,0 7,-1 9,-3 2,-2 3,-4 3,-7 0,-4 -4,-8 -13,-13 -1,0 -1,0 -2,-1 -8,-3 -13,-7 -16,-11 -3,-4 -5,-9 -5,-15 0,-10 4,-19 10,-25 7,-7 16,-9 27,-9 5,0 11,1 17,2 5,2 10,5 14,9l-11 20c-4,-2 -7,-5 -11,-6 -3,-2 -6,-3 -8,-3 -2,0 -5,1 -7,3 -2,2 -3,4 -3,6 0,2 4,6 10,9 3,2 5,3 6,4 8,4 13,8 16,12 3,4 4,9 4,16 0,11 -4,19 -12,26 -8,7 -17,10 -31,10 -7,0 -13,-1 -19,-4 -6,-3 -12,-8 -17,-14l15 -20 0 0z"/>
   <polygon id="_8" class="fil1" points="1195,164 1250,45 1265,45 1210,164 "/>
   <path id="_9" class="fil1" d="M1064 129c3,0 5,0 7,0 2,-1 3,-1 4,-1l22 0 -4 23 -75 0 42 -50c6,-6 9,-10 11,-14 2,-4 3,-7 3,-10 0,-2 -1,-5 -3,-7 -2,-2 -5,-3 -8,-3 -4,0 -7,2 -9,5 -3,3 -4,6 -4,11l-24 0c1,-11 4,-21 11,-27 7,-7 16,-10 27,-10 11,0 20,2 26,8 7,6 10,14 10,23 0,6 -1,13 -5,19 -3,6 -9,12 -17,20l-14 13 0 0z"/>
   <path id="_10" class="fil1" d="M1153 107l6 -31c1,-2 2,-6 3,-11l0 -1c-1,2 -2,4 -4,6 -1,2 -2,4 -4,6l-25 31 24 0 0 0zm-7 44l4 -24 -44 0 3 -20 47 -60 30 0 -10 60 14 0 -3 20 -14 0 -3 24 -24 0z"/>
   <polygon id="_11" class="fil1" points="1270,151 1320,72 1277,72 1281,47 1362,47 1361,51 1299,151 "/>
  </g>
 </g>
</svg>
