<?xml version="1.0" encoding="UTF-8"?>
<!DOCTYPE svg PUBLIC "-//W3C//DTD SVG 1.1//EN" "http://www.w3.org/Graphics/SVG/1.1/DTD/svg11.dtd">
<!-- Creator: CorelDRAW X8 -->
<svg xmlns="http://www.w3.org/2000/svg" xml:space="preserve" width="3134px" height="665px" version="1.1" style="shape-rendering:geometricPrecision; text-rendering:geometricPrecision; image-rendering:optimizeQuality; fill-rule:evenodd; clip-rule:evenodd"
viewBox="0 0 3134 665"
 xmlns:xlink="http://www.w3.org/1999/xlink">
 <defs>
  <style type="text/css">
   <![CDATA[
    .fil0 {fill:#071630}
    .fil2 {fill:#191D30}
    .fil3 {fill:#35B0E5}
    .fil1 {fill:#9C9B9B}
    .fil4 {fill:white}
   ]]>
  </style>
 </defs>
 <g id="Capa_x0020_1">
  <metadata id="CorelCorpID_0Corel-Layer"/>
  <g id="_84858576">
   <path class="fil0" d="M552 249l0 -17 -65 0 0 302 65 0 0 -234c23,-13 76,-29 98,-9 16,14 18,42 18,70l0 173 68 0c0,0 0,-235 0,-235 20,-11 60,-22 86,-10 27,13 28,52 28,91l0 154 65 0 0 -179c0,-57 -16,-113 -63,-126 -41,-12 -104,-2 -148,25 -35,-39 -115,-35 -152,-5l0 0z"/>
   <path class="fil1" d="M1996 112c2,19 99,295 113,338 7,20 13,39 20,57 15,39 4,37 72,37 30,0 29,-13 37,-36 22,-67 131,-378 131,-394 0,-13 -36,-12 -48,-12 -23,0 -29,6 -35,24l-102 317c-2,-25 -18,-68 -26,-92 -9,-30 -19,-60 -30,-90 -10,-31 -19,-60 -29,-89 -24,-72 -15,-70 -69,-70 -20,0 -31,1 -34,10l0 0z"/>
   <path class="fil0" d="M1111 483l-53 -4 0 -173c0,-10 125,-67 125,61 0,56 2,116 -72,116l0 0zm-53 -234l0 -17 -65 0 0 433 65 0 0 -129c55,6 133,15 168,-39 38,-57 52,-271 -77,-271 -43,0 -51,3 -91,23l0 0z"/>
   <path class="fil2" d="M0 222c-5,171 209,84 209,200 0,37 -34,63 -72,59l-126 -10 -7 54 154 15c77,-2 120,-54 120,-133 0,-67 -39,-88 -89,-106 -59,-20 -121,-21 -121,-75 0,-39 35,-54 73,-53l121 14c0,0 8,-58 8,-58 0,0 -12,-3 -42,-8 -62,-11 -141,-17 -191,20 -20,15 -37,47 -37,81z"/>
   <path class="fil1" d="M1653 135c0,52 3,41 124,41l0 349c0,23 35,19 53,19 19,0 31,-5 31,-25l0 -343 99 0c27,0 24,-23 24,-45 0,-14 -3,-27 -17,-27l-297 0c-16,0 -17,16 -17,31z"/>
   <path class="fil0" d="M1522 348c0,-50 25,-67 70,-67 47,0 54,37 54,78l-124 0 0 -11 0 0zm-67 24l0 31c0,78 34,137 111,137 56,0 81,-5 137,-12l-2 -51c-82,2 -179,35 -179,-65l181 0c11,0 9,-51 9,-66 0,-66 -44,-120 -110,-120l-32 0c-76,0 -115,68 -115,146l0 0z"/>
   <polygon class="fil0" points="1318,534 1385,534 1385,106 1318,106 "/>
   <polygon class="fil0" points="342,534 407,534 407,232 342,232 "/>
   <polygon class="fil0" points="342,182 407,182 407,110 342,110 "/>
   <ellipse class="fil3" cx="2819" cy="311" rx="315" ry="311"/>
   <g>
    <path class="fil4" d="M2819 253c-13,4 -18,12 -19,22l0 48 -114 -95c-9,-7 -16,-21 -21,-47l0 -15c0,-31 25,-56 56,-56l197 0c30,0 55,25 55,56l0 31c0,31 -25,56 -55,56l-99 0 0 0z"/>
    <path class="fil4" d="M2819 370c13,-4 19,-12 20,-22l0 -48 114 95c8,7 16,21 20,47l0 15c0,31 -25,56 -55,56l-197 0c-31,0 -56,-25 -56,-56l0 -31c0,-31 25,-56 56,-56l98 0z"/>
   </g>
  </g>
 </g>
</svg>
